# AST/ASF file generated using VICON BodyLanguage
# -----------------------------------------------
:version 1.10
:name VICON
:units
  mass 1.0
  length 0.45
  angle deg
:documentation
   .ast/.asf automatically generated from VICON data using
   VICON BodyBuilder and BodyLanguage model FoxedUp or BRILLIANT.MOD
:root
   order TX TY TZ RX RY RZ
   axis XYZ
   position 0 0 0  
   orientation 0 0 0 
:bonedata
  begin
     id 1 
     name lhipjoint
     direction 0.535335 -0.74333 0.401095 
     length 2.04549 
     axis 0 0 0  XYZ
  end
  begin
     id 2 
     name lfemur
     direction 0.34202 -0.939693 0  
     length 6.95643  
     axis 0 0 20  XYZ
    dof rx ry rz
    limits (-160.0 20.0)
           (-70.0 70.0)
           (-60.0 70.0)
  end
  begin
     id 3 
     name ltibia
     direction 0.34192 -0.939729 0   
     length 5.55969   
     axis 0 0 20   XYZ
    dof rx
    limits (-10.0 170.0)
  end
  begin
     id 4 
     name lfoot
     direction 0.216943 -0.596046 0.773088   
     length 2.27918   
     axis -90 7.62852e-016 20   XYZ
    dof rx rz
    limits (-45.0 90.0)
           (-70.0 20.0)
  end
  begin
     id 5 
     name ltoes
     direction 1.53519e-011 -4.21748e-011 1   
     length 1.05562   
     axis -90 7.62852e-016 20   XYZ
    dof rx
    limits (-90.0 20.0)
  end
  begin
     id 6 
     name rhipjoint
     direction -0.576368 -0.719173 0.38806   
     length 2.1142  
     axis 0 0 0  XYZ 
  end
  begin
     id 7 
     name rfemur
     direction -0.34202 -0.939693 0   
     length 7.07928   
     axis 0 0 -20   XYZ
    dof rx ry rz
    limits (-160.0 20.0)
           (-70.0 70.0)
           (-70.0 60.0)
  end
  begin
     id 8 
     name rtibia
     direction -0.34202 -0.939693 0   
     length 5.79974   
     axis 0 0 -20   XYZ
    dof rx
    limits (-10.0 170.0)
 end
 begin
     id 9 
     name rfoot
     direction -0.189288 -0.520065 0.832888   
     length 2.42173  
     axis -90 -7.62852e-016 -20   XYZ
    dof rx rz
    limits (-45.0 90.0)
           (-20.0 70.0)
  end
  begin
     id 10 
     name rtoes
     direction -1.53574e-011 -4.21658e-011 1   
     length 1.14469   
     axis -90 -7.62852e-016 -20   XYZ
    dof rx
    limits (-90.0 20.0)
  end
  begin
     id 11 
     name lowerback
     direction -0.00135702 0.993803 0.111144   
     length 1.91308   
     axis 0 0 0   XYZ
    dof rx ry rz
    limits (-20.0 45.0)
           (-30.0 30.0)
           (-30.0 30.0)
  end
  begin
     id 12 
     name upperback
     direction -0.0056745 0.999813 0.0184631   
     length 1.9212   
     axis 0 0 0   XYZ
    dof rx ry rz
    limits (-20.0 45.0)
           (-30.0 30.0)
           (-30.0 30.0)
  end
  begin
     id 13 
     name thorax
     direction -0.00733434 0.999426 -0.0330788   
     length 1.94196   
     axis 0 0 0   XYZ
    dof rx ry rz
    limits (-20.0 45.0)
           (-30.0 30.0)
           (-30.0 30.0)
  end
  begin
     id 14 
     name lowerneck
     direction 0.0563074 0.996944 -0.0541571   
     length 2.34257   
     axis 0 0 0   XYZ
    dof rx ry rz
    limits (-20.0 45.0)
           (-30.0 30.0)
           (-30.0 30.0)
  end
  begin
     id 15 
     name upperneck
     direction -0.0544519 0.976166 -0.210085   
     length 2.32506   
     axis 0 0 0   XYZ
    dof rx ry rz
    limits (-20.0 45.0)
           (-30.0 30.0)
           (-30.0 30.0)
  end
  begin
     id 16
     name head
     direction -0.0226035 0.997615 -0.0652205  
     length 2.3648  
     axis 0 0 0   XYZ
    dof rx ry rz
    limits (-20.0 45.0)
           (-30.0 30.0)
           (-30.0 30.0)
  end
  begin
     id 17 
     name lclavicle
     direction 0.92109 0.381297 -0.0787716  
     length 4.0487  
     axis 0 0 0   XYZ
    dof ry rz
    limits (-20.0 10.0)
           (0.0 20.0)
  end
  begin
     id 18 
     name lhumerus
     direction 1 -4.48986e-011 3.56724e-027   
     length 4.94991   
     axis 180 -30 -90   XYZ
    dof rx ry rz
    limits (-60.0 90.0)
           (-90.0 90.0)
           (-90.0 90.0)
  end
  begin
     id 19
     name lradius
     direction 1 -4.48981e-011 8.62147e-027   
     length 2.7606   
     axis 180 -30 -90   XYZ
    dof rx
    limits (-10.0 170.0)
  end
  begin
     id 20
     name lwrist
     direction 1 -4.48989e-011 1.59799e-026   
     length 1.3803   
     axis -1.17785e-014 90 90   XYZ
    dof ry
    limits (-180.0 0.0)
 end
  begin
     id 21 
     name lhand
     direction 1 -4.48896e-011 3.19599e-026   
     length 0.843936   
     axis -2.03931e-014 90 90   XYZ
    dof rx rz
    limits (-90.0 90.0)
           (-45.0 45.0)
  end
  begin
     id 22 
     name lfingers
     direction 1 -4.48887e-011 6.39197e-026   
     length 0.680403   
     axis -4.07862e-014 90 90   XYZ
    dof rx
    limits (0.0 90.0)
  end
  begin
     id 23
     name lthumb
     direction 0.707107 -6.348e-011 0.707107   
     length 0.976926   
     axis -90 45 2.85299e-015   XYZ
    dof rx rz
    limits (-45.0 45.0)
           (-45.0 45.0)
  end
  begin
     id 24 
     name rclavicle
     direction -0.951104 0.307692 -0.026953   
     length 4.21801  
     axis 0 0 0   XYZ 
    dof ry rz
    limits (-10.0 20.0)
           (-20.0 0.0)
  end
  begin
     id 25 
     name rhumerus
     direction -1 -4.4896e-011 -1.8171e-018  
     length 4.32982   
     axis 180 30 90   XYZ
    dof rx ry rz
    limits (-90.0 60.0)
           (-90.0 90.0)
           (-90.0 90.0)
  end
  begin
     id 26 
     name rradius
     direction -1 -4.48959e-011 8.25165e-027   
     length 3.20057   
     axis 180 30 90   XYZ
    dof rx
    limits (-10.0 170.0)
  end
  begin
     id 27 
     name rwrist
     direction -1 -4.48997e-011 1.59799e-026   
     length 1.60029   
     axis -1.17785e-014 -90 -90   XYZ
    dof ry
    limits (-180.0 0.0)
  end
  begin
     id 28
     name rhand
     direction -1 -4.49023e-011 3.19599e-026   
     length 0.960433   
     axis -2.03931e-014 -90 -90   XYZ
    dof rx rz
    limits (-90.0 90.0)
           (-45.0 45.0)
  end
  begin
     id 29
     name rfingers
     direction -1 -4.48802e-011 6.39197e-026   
     length 0.774326   
     axis -4.07862e-014 -90 -90   XYZ
    dof rx
    limits (0.0 90.0)
  end
  begin
     id 30
     name rthumb
     direction -0.707107 -6.34876e-011 0.707107   
     length 1.11178   
     axis -90 -45 -2.85299e-015   XYZ
    dof rx rz
    limits (-45.0 45.0)
           (-45.0 45.0)
  end
:hierarchy
  begin
    root lhipjoint rhipjoint lowerback
    lhipjoint lfemur
    lfemur ltibia
    ltibia lfoot
    lfoot ltoes
    rhipjoint rfemur
    rfemur rtibia
    rtibia rfoot
    rfoot rtoes
    lowerback upperback
    upperback thorax
    thorax lowerneck lclavicle rclavicle
    lowerneck upperneck
    upperneck head
    lclavicle lhumerus
    lhumerus lradius
    lradius lwrist
    lwrist lhand lthumb
    lhand lfingers
    rclavicle rhumerus
    rhumerus rradius
    rradius rwrist
    rwrist rhand rthumb
    rhand rfingers
end

#!OML:ASF C:\KaitlinTest1\Natural Motions\Nikki\Session 2\Nikki.ASF
:FULLY-SPECIFIED
:DEGREES
353
root -18.9133 16.6334 5.05938 -155.207 85.7018 -165.118
lowerback -13.426 -1.67322 -0.043517
upperback -3.95696 -2.00614 -0.522342
thorax 3.3419 -0.919008 -0.836942
lowerneck -1.95507 1.57955 8.42632
upperneck 27.3281 3.7826 -5.43544
head 9.10292 2.51772 -2.94995
rclavicle 9.88954e-015 -2.78299e-015
rhumerus -42.4341 -22.3834 -79.1901
rradius 18.424
rwrist 29.3177
rhand -35.8632 3.08947
rfingers 7.12502
rthumb -8.97776 -26.6995
lclavicle 9.88954e-015 -2.78299e-015
lhumerus -42.236 16.4628 80.1522
lradius 23.9561
lwrist -40.5818
lhand -32.4987 3.71545
lfingers 7.12502
lthumb -5.73025 33.618
rfemur -7.90956 -16.7809 21.0492
rtibia 11.3184
rfoot -10.649 11.8676
rtoes 5.32743e-014
lfemur -10.0583 11.9033 -17.9184
ltibia 9.69237
lfoot -1.93885 -16.7407
ltoes 2.22639e-014
354
root -18.9126 16.633 5.06001 -154.987 85.7029 -164.87
lowerback -13.388 -1.6726 -0.0332569
upperback -3.96426 -2.00765 -0.508953
thorax 3.31376 -0.91994 -0.827718
lowerneck -1.92071 1.57196 8.44191
upperneck 27.3158 3.78587 -5.48508
head 9.09322 2.51691 -2.96991
rclavicle 4.82053e-015 5.96354e-015
rhumerus -42.4549 -22.2993 -79.2278
rradius 18.4639
rwrist 29.1761
rhand -35.8077 3.03805
rfingers 7.12502
rthumb -8.92423 -26.7532
lclavicle 4.82053e-015 5.96354e-015
lhumerus -42.2668 16.4367 80.1754
lradius 23.9911
lwrist -40.4443
lhand -32.5202 3.70558
lfingers 7.12502
lthumb -5.75099 33.6075
rfemur -7.87427 -16.7655 21.0615
rtibia 11.3124
rfoot -10.6671 11.8677
rtoes 3.33958e-014
lfemur -10.0298 11.9122 -17.8903
ltibia 9.70237
lfoot -1.94931 -16.7266
ltoes 1.59028e-014
355
root -18.9128 16.633 5.05993 -154.825 85.6759 -164.715
lowerback -13.3634 -1.6747 -0.00032252
upperback -3.98735 -2.01395 -0.511752
thorax 3.27486 -0.922862 -0.84898
lowerneck -1.92094 1.56374 8.44791
upperneck 27.3512 3.77242 -5.46425
head 9.10467 2.5146 -2.96512
rclavicle 2.22887e-014 5.96354e-015
rhumerus -42.4906 -22.3482 -79.1898
rradius 18.4264
rwrist 29.2726
rhand -35.8002 2.94811
rfingers 7.12502
rthumb -8.91702 -26.8435
lclavicle 2.22887e-014 5.96354e-015
lhumerus -42.2792 16.4063 80.161
lradius 23.9804
lwrist -40.4717
lhand -32.5198 3.7221
lfingers 7.12502
lthumb -5.7506 33.6241
rfemur -7.87381 -16.7871 21.0896
rtibia 11.291
rfoot -10.6446 11.8724
rtoes -1.59028e-014
lfemur -10.0471 11.8935 -17.8665
ltibia 9.71441
lfoot -1.95619 -16.7446
ltoes -4.92986e-014
356
root -18.9113 16.633 5.05971 -154.908 85.7148 -164.782
lowerback -13.348 -1.66864 -0.0111594
upperback -3.98794 -2.00433 -0.521684
thorax 3.26607 -0.918247 -0.851244
lowerneck -1.92306 1.56688 8.46347
upperneck 27.3581 3.77796 -5.47365
head 9.10843 2.51802 -2.97067
rclavicle 2.19657e-014 5.1684e-015
rhumerus -42.5215 -22.3372 -79.1918
rradius 18.4241
rwrist 29.3174
rhand -35.8646 3.11406
rfingers 7.12502
rthumb -8.97916 -26.6749
lclavicle 2.19657e-014 5.1684e-015
lhumerus -42.2916 16.3311 80.2095
lradius 24.012
lwrist -40.2861
lhand -32.5261 3.73927
lfingers 7.12502
lthumb -5.75669 33.6411
rfemur -7.84692 -16.7601 21.0605
rtibia 11.2709
rfoot -10.6559 11.8765
rtoes 4.21423e-014
lfemur -10.0267 11.9255 -17.8872
ltibia 9.73122
lfoot -1.94092 -16.7343
ltoes -3.49861e-014
357
root -18.9111 16.6335 5.0601 -154.838 85.6993 -164.721
lowerback -13.3294 -1.67556 -0.0182965
upperback -4.00593 -2.01256 -0.508914
thorax 3.23778 -0.922178 -0.834306
lowerneck -1.90867 1.56354 8.44789
upperneck 27.3557 3.7755 -5.46934
head 9.10427 2.51618 -2.96677
rclavicle 2.5842e-015 -2.38542e-015
rhumerus -42.5512 -22.2494 -79.229
rradius 18.4773
rwrist 29.2058
rhand -35.8172 3.02595
rfingers 7.12502
rthumb -8.93338 -26.7649
lclavicle 2.5842e-015 -2.38542e-015
lhumerus -42.2973 16.3212 80.238
lradius 23.9596
lwrist -40.1271
lhand -32.7236 3.60279
lfingers 7.12502
lthumb -5.94734 33.4993
rfemur -7.85011 -16.771 21.0723
rtibia 11.269
rfoot -10.6565 11.8807
rtoes -5.64548e-014
lfemur -10.0441 11.9137 -17.8789
ltibia 9.72311
lfoot -1.93486 -16.7293
ltoes -6.52014e-014
358
root -18.9115 16.6334 5.05957 -155.02 85.7046 -164.918
lowerback -13.3192 -1.67514 -0.0300813
upperback -4.01562 -2.00991 -0.514315
thorax 3.22237 -0.9208 -0.832389
lowerneck -1.92437 1.5608 8.44673
upperneck 27.3614 3.76907 -5.4646
head 9.10863 2.51319 -2.96539
rclavicle 8.59744e-015 -9.14409e-015
rhumerus -42.5561 -22.3069 -79.1936
rradius 18.4314
rwrist 29.2743
rhand -35.8469 3.04122
rfingers 7.12502
rthumb -8.9621 -26.7484
lclavicle 8.59744e-015 -9.14409e-015
lhumerus -42.2711 16.214 80.3066
lradius 23.9606
lwrist -39.9952
lhand -32.8159 3.611
lfingers 7.12502
lthumb -6.03651 33.505
rfemur -7.86538 -16.7662 21.0607
rtibia 11.2663
rfoot -10.6263 11.8707
rtoes 8.74653e-014
lfemur -10.0515 11.9126 -17.8982
ltibia 9.71057
lfoot -1.94966 -16.745
ltoes -2.06736e-014
359
root -18.9101 16.6336 5.05994 -155.231 85.7277 -165.128
lowerback -13.3547 -1.67055 -0.0539015
upperback -4.00304 -2.00042 -0.520358
thorax 3.25549 -0.916035 -0.825088
lowerneck -1.90998 1.56306 8.44653
upperneck 27.3358 3.77135 -5.46522
head 9.09707 2.51364 -2.96527
rclavicle 3.65267e-015 5.56597e-015
rhumerus -42.5408 -22.1862 -79.283
rradius 18.4789
rwrist 29.0968
rhand -35.8311 2.98754
rfingers 7.12502
rthumb -8.94685 -26.8028
lclavicle 3.65267e-015 5.56597e-015
lhumerus -42.2771 16.3026 80.2404
lradius 23.9675
lwrist -40.1689
lhand -32.7662 3.56397
lfingers 7.12502
lthumb -5.98853 33.4593
rfemur -7.86173 -16.7648 21.0325
rtibia 11.2663
rfoot -10.6285 11.8869
rtoes -7.07673e-014
lfemur -10.0388 11.9265 -17.9236
ltibia 9.69658
lfoot -1.94347 -16.7441
ltoes -3.97569e-014
360
root -18.9107 16.6332 5.06047 -155.036 85.7148 -164.953
lowerback -13.3744 -1.67314 -0.040463
upperback -3.99908 -2.00558 -0.51777
thorax 3.26987 -0.918485 -0.831435
lowerneck -1.95132 1.55701 8.45151
upperneck 27.3485 3.76047 -5.47542
head 9.10856 2.50709 -2.97044
rclavicle -1.47598e-014 -8.74653e-015
rhumerus -42.5285 -22.2418 -79.2537
rradius 18.4544
rwrist 29.1865
rhand -35.7918 2.93988
rfingers 7.12502
rthumb -8.90887 -26.852
lclavicle -1.47598e-014 -8.74653e-015
lhumerus -42.2462 16.2973 80.252
lradius 23.9739
lwrist -40.1364
lhand -32.7966 3.58634
lfingers 7.12502
lthumb -6.01788 33.4809
rfemur -7.88953 -16.694 21.0573
rtibia 11.2895
rfoot -10.6496 11.8078
rtoes 2.8625e-014
lfemur -10.0511 11.9218 -17.9075
ltibia 9.66692
lfoot -1.93595 -16.7264
ltoes 6.36111e-015
